<?xml version="1.0" encoding="utf-8"?>
<!-- Uploaded to: SVG Repo, www.svgrepo.com, Generator: SVG Repo Mixer Tools -->
<svg fill="#fff" width="30px" height="30px" viewBox="0 0 32 32" version="1.1" xmlns="http://www.w3.org/2000/svg">
<title>celcius</title>
<path d="M30.215 21.879l-0.922-0.408c-0.12-0.053-0.259-0.085-0.406-0.085-0.131 0-0.255 0.025-0.37 0.069l0.007-0.002c-0.249 0.1-0.445 0.29-0.55 0.529l-0.003 0.006c-0.791 1.825-2.053 3.321-3.634 4.376l-0.036 0.023c-1.52 1.039-3.397 1.659-5.42 1.659-0.048 0-0.096-0-0.144-0.001l0.007 0c-0.059 0.001-0.128 0.002-0.198 0.002-2.749 0-5.232-1.145-6.996-2.983l-0.003-0.003c-1.836-1.798-2.975-4.303-2.975-7.074 0-0.087 0.001-0.174 0.003-0.261l-0 0.013c-0.002-0.074-0.003-0.16-0.003-0.247 0-2.771 1.138-5.275 2.973-7.072l0.002-0.002c1.768-1.842 4.25-2.986 6.999-2.986 0.070 0 0.139 0.001 0.208 0.002l-0.010-0c0.028-0 0.062-0 0.096-0 2.036 0 3.927 0.62 5.496 1.681l-0.035-0.022c1.616 1.078 2.878 2.574 3.645 4.334l0.025 0.064c0.108 0.246 0.304 0.436 0.548 0.533l0.007 0.002c0.108 0.044 0.233 0.069 0.364 0.069 0.147 0 0.286-0.032 0.412-0.090l-0.006 0.003 0.922-0.409c0.353-0.159 0.594-0.508 0.594-0.913 0-0.147-0.032-0.286-0.089-0.412l0.003 0.006c-1.043-2.344-2.677-4.264-4.716-5.625l-0.048-0.030c-1.995-1.346-4.454-2.149-7.101-2.149-0.041 0-0.082 0-0.122 0.001l0.006-0c-0.064-0.001-0.139-0.002-0.215-0.002-3.574 0-6.804 1.474-9.114 3.847l-0.003 0.003c-2.364 2.338-3.829 5.582-3.829 9.168 0 0.087 0.001 0.173 0.003 0.259l-0-0.013c-0.002 0.074-0.002 0.161-0.002 0.248 0 3.586 1.464 6.83 3.827 9.166l0.001 0.001c2.312 2.375 5.539 3.848 9.111 3.848 0.078 0 0.155-0.001 0.233-0.002l-0.012 0c0.037 0 0.080 0.001 0.123 0.001 2.644 0 5.101-0.803 7.139-2.178l-0.045 0.029c2.087-1.391 3.721-3.311 4.731-5.572l0.033-0.083c0.054-0.119 0.086-0.259 0.086-0.406 0-0.406-0.242-0.755-0.59-0.91l-0.006-0.003zM7.836 4.198c0-0 0-0 0-0 0-1.904-1.544-3.448-3.448-3.448s-3.448 1.544-3.448 3.448c0 1.904 1.543 3.447 3.447 3.448h0c1.903-0.002 3.446-1.544 3.448-3.447v-0zM4.388 5.146c-0.523-0-0.947-0.425-0.947-0.948s0.424-0.948 0.948-0.948 0.948 0.424 0.948 0.948c0 0 0 0 0 0.001v-0c-0.001 0.523-0.425 0.947-0.948 0.947-0 0-0 0-0 0v0z"></path>
</svg>